<?xml version="1.0" encoding="UTF-8"?>
<svg xmlns="http://www.w3.org/2000/svg" id="Layer_1" width="1138" height="171" data-name="Layer 1" viewBox="431 914 1138 171">
   <defs>
      <style>.cls-1{fill:#1f3a77;}.cls-2{fill:#fac831;}</style>
   </defs>
   <title>La Toque magique text</title>
   <path class="cls-1" d="M431.83,1016.19h7.74v47.44H468.9v6.73H431.83Z" />
   <path class="cls-1" d="M534.22,1056.82H505.43l-6,13.54h-8L516,1016.19h7.66l24.61,54.17h-8.12Zm-2.71-6.19-11.69-26.55-11.69,26.55Z" />
   <path class="cls-1" d="M631.27,1022.92H612.69v-6.73H657.5v6.73H638.93v47.44h-7.66Z" />
   <path class="cls-1" d="M696.5,1067.39a26.71,26.71,0,0,1-10.33-10,28.63,28.63,0,0,1,0-28.33,26.68,26.68,0,0,1,10.33-9.94,32,32,0,0,1,29.49,0,26.4,26.4,0,0,1,10.3,9.91,29,29,0,0,1,0,28.4,26.47,26.47,0,0,1-10.3,9.91,32.08,32.08,0,0,1-29.49,0Zm25.51-6a19.92,19.92,0,0,0,7.5-7.47,22,22,0,0,0,0-21.28,19.85,19.85,0,0,0-7.5-7.47,21.25,21.25,0,0,0-10.72-2.71,21.68,21.68,0,0,0-10.8,2.71,19.71,19.71,0,0,0-7.58,7.47,22,22,0,0,0,0,21.28,19.78,19.78,0,0,0,7.58,7.47,21.78,21.78,0,0,0,10.8,2.71A21.35,21.35,0,0,0,722,1061.39Z" />
   <path class="cls-1" d="M829.31,1075.32a18,18,0,0,1-6.11,4.72,17.6,17.6,0,0,1-7.51,1.62,19.67,19.67,0,0,1-9.56-2.43,46,46,0,0,1-10.17-8.32,29.23,29.23,0,0,1-13.82-4.1,26.46,26.46,0,0,1-9.59-9.87,28.71,28.71,0,0,1,.3-27.83,26.64,26.64,0,0,1,10.34-9.94,32,32,0,0,1,29.48,0,26.4,26.4,0,0,1,10.3,9.91,27.48,27.48,0,0,1,3.71,14.2,28,28,0,0,1-2.67,12.23,26,26,0,0,1-7.51,9.36,28.09,28.09,0,0,1-11.1,5.26,19.89,19.89,0,0,0,5.22,4.14,11.27,11.27,0,0,0,5.15,1.28,12.9,12.9,0,0,0,9.9-4.64Zm-49.72-21.4a19.78,19.78,0,0,0,7.58,7.47,21.81,21.81,0,0,0,10.8,2.71,21.41,21.41,0,0,0,10.68-2.71,19.81,19.81,0,0,0,7.54-7.47,22,22,0,0,0,0-21.28,19.74,19.74,0,0,0-7.54-7.47,21.31,21.31,0,0,0-10.68-2.71,21.71,21.71,0,0,0-10.8,2.71,19.71,19.71,0,0,0-7.58,7.47,22,22,0,0,0,0,21.28Z" />
   <path class="cls-1" d="M865.76,1064.79q-6-6.19-6-17.8v-30.8h7.74v30.49q0,17.41,15.24,17.42,7.44,0,11.38-4.3t3.95-13.12v-30.49h7.5V1047q0,11.68-6,17.84T882.63,1071Q871.8,1071,865.76,1064.79Z" />
   <path class="cls-1" d="M982.39,1063.63v6.73H943.08v-54.17h38.23v6.73H950.82v16.64H978v6.58H950.82v17.49Z" />
   <path class="cls-2" d="M1109.32,1070.36l-.08-39.47-19.58,32.9h-3.56l-19.58-32.66v39.23h-7.43v-54.17h6.34l22.6,38.08,22.29-38.08h6.35l.07,54.17Z" />
   <path class="cls-2" d="M1189.18,1056.82h-28.79l-6,13.54h-8l24.54-54.17h7.66l24.61,54.17h-8.13Zm-2.71-6.19-11.68-26.55-11.69,26.55Z" />
   <path class="cls-2" d="M1269.75,1043h7.43v21.13a28.67,28.67,0,0,1-9.37,5.1,34.89,34.89,0,0,1-11.14,1.78,30.25,30.25,0,0,1-14.78-3.59,26.69,26.69,0,0,1-10.33-9.91,28.77,28.77,0,0,1,0-28.44,26.24,26.24,0,0,1,10.37-9.91,31,31,0,0,1,14.9-3.56,31.42,31.42,0,0,1,11.8,2.13,24,24,0,0,1,9,6.23l-4.8,4.8a21.8,21.8,0,0,0-15.71-6.27,22.86,22.86,0,0,0-11.1,2.67,19.45,19.45,0,0,0-7.7,7.43,21.84,21.84,0,0,0,0,21.36,19.82,19.82,0,0,0,7.7,7.47,22.53,22.53,0,0,0,11,2.71,22.88,22.88,0,0,0,12.69-3.49Z" />
   <path class="cls-2" d="M1415.09,1075.32A18,18,0,0,1,1409,1080a17.63,17.63,0,0,1-7.51,1.62,19.64,19.64,0,0,1-9.56-2.43,46,46,0,0,1-10.17-8.32,29.23,29.23,0,0,1-13.82-4.1,26.46,26.46,0,0,1-9.59-9.87,28.71,28.71,0,0,1,.3-27.83,26.68,26.68,0,0,1,10.33-9.94,32,32,0,0,1,29.49,0,26.4,26.4,0,0,1,10.3,9.91,27.48,27.48,0,0,1,3.71,14.2,28,28,0,0,1-2.67,12.23,26,26,0,0,1-7.51,9.36,28.09,28.09,0,0,1-11.1,5.26,19.73,19.73,0,0,0,5.22,4.14,11.27,11.27,0,0,0,5.15,1.28,12.92,12.92,0,0,0,9.9-4.64Zm-49.72-21.4a19.78,19.78,0,0,0,7.58,7.47,21.78,21.78,0,0,0,10.8,2.71,21.41,21.41,0,0,0,10.68-2.71,19.81,19.81,0,0,0,7.54-7.47,22,22,0,0,0,0-21.28,19.74,19.74,0,0,0-7.54-7.47,21.31,21.31,0,0,0-10.68-2.71,21.68,21.68,0,0,0-10.8,2.71,19.71,19.71,0,0,0-7.58,7.47,22,22,0,0,0,0,21.28Z" />
   <path class="cls-2" d="M1451.54,1064.79q-6-6.19-6-17.8v-30.8h7.74v30.49q0,17.41,15.24,17.42,7.42,0,11.38-4.3t4-13.12v-30.49h7.5V1047q0,11.68-6,17.84t-16.88,6.15Q1457.58,1071,1451.54,1064.79Z" />
   <path class="cls-2" d="M1568.17,1063.63v6.73h-39.31v-54.17h38.23v6.73H1536.6v16.64h27.16v6.58H1536.6v17.49Z" />
   <path class="cls-2" d="M1324.26,1075.6a3.6,3.6,0,0,1-.66-2.9c-.07-7.19-.09-14.38-.15-21.57,0-1,.24-2.51-1.17-2.6-1.63-.11-1.53,1.42-1.53,2.57,0,6.64.26,13.29-.4,19.92-.12,1.24,0,2.52-.85,3.78a12.77,12.77,0,0,1-.76-5c0-5.39-.07-10.78-.09-16.17,0-.63.06-1.27,0-1.89-.15-1.32.45-3.32-1.74-3.25-1.89.06-1.53,1.87-1.54,3.17,0,2.24,0,4.49.05,6.73,0,4.14.08,8.27.06,12.4a7.76,7.76,0,0,1-.83,4.43c-.3-1.69-.64-2.91-.73-4.15-.49-6.45-.78-12.91-.7-19.38,0-1.2.34-3-1.3-3s-1.4,1.73-1.4,2.94c0,7.28.11,14.56.15,21.83a2.54,2.54,0,0,1-.71,1.93c-.31-2.46-.68-4.91-.9-7.38-.78-8.42-.82-16.86-.93-25.3a6.79,6.79,0,0,1,2-5.36c3.42-3.21,4.41-7.31,4.48-11.73.18-10.68.24-21.36-1.95-31.91a19.47,19.47,0,0,1,0-8.56,20.6,20.6,0,0,0-.69-11.35,23,23,0,0,1-1.49-7.88,6,6,0,0,1,11.94-.06c.1,4.1-1.45,7.9-2.31,11.82a7.18,7.18,0,0,0-.28,3.45c1.78,6.33.85,12.59-.07,18.93a119.66,119.66,0,0,0-.18,29.54,11.57,11.57,0,0,0,3.78,7.26,8.1,8.1,0,0,1,2.52,6.25c.08,10.43-.26,20.83-1.22,31.21A8.88,8.88,0,0,1,1324.26,1075.6Z" />
   <path class="cls-2" d="M1327,960.44a51.53,51.53,0,0,0,4.67-5.17,1.53,1.53,0,0,0,.28-1.56c-.68-2.13-1.58-4.18-2.46-6.22a.52.52,0,0,1,0-.36l2.37,2.27c.92.88,1.89,1.7,2.86,2.52a1.31,1.31,0,0,0,1.42.23c2.11-.72,4.17-1.59,6.23-2.46l.5-.18c-.83.83-1.51,1.5-2.17,2.18a31.84,31.84,0,0,0-2.86,3.28,1.14,1.14,0,0,0-.18,1.15,61,61,0,0,0,2.23,5.81,5.12,5.12,0,0,1,.32.88c-1.36-1.37-2.74-2.7-4.18-4a3,3,0,0,0-3.55-.66c-1.48.67-3,1.21-4.52,1.87C1327.66,960.19,1327.35,960.31,1327,960.44Z" />
   <path class="cls-2" d="M1329.55,920c-.49.51-1,1-1.49,1.52a7.79,7.79,0,0,0-1.07,1.37c-.27.42,0,.83.14,1.22.39,1,.8,2,1.17,3a30.38,30.38,0,0,0-2.5-2.32,1.37,1.37,0,0,0-1.54-.27c-1.08.41-2.14.84-3.2,1.32-.07-.19.09-.23.18-.31a20.17,20.17,0,0,0,2.3-2.5,1,1,0,0,0,.18-1c-.34-1-.72-1.93-1.13-2.88l-.33-.78c1,.89,1.8,1.69,2.65,2.47a1.34,1.34,0,0,0,1.58.3A26.53,26.53,0,0,1,1329.55,920Z" />
   <path class="cls-2" d="M1296.34,924.15c-.49.51-1,1-1.49,1.52a7.5,7.5,0,0,0-1.07,1.38c-.27.41,0,.83.14,1.21.39,1,.8,2,1.17,3a30.38,30.38,0,0,0-2.5-2.32,1.37,1.37,0,0,0-1.54-.27c-1.08.41-2.14.84-3.2,1.32-.07-.19.09-.23.18-.31a20.17,20.17,0,0,0,2.3-2.5,1,1,0,0,0,.18-1c-.34-1-.72-1.94-1.13-2.89l-.33-.78c1,.89,1.8,1.69,2.65,2.47a1.33,1.33,0,0,0,1.58.3A30.88,30.88,0,0,1,1296.34,924.15Z" />
   <path class="cls-2" d="M1355,957.41a3.37,3.37,0,1,1-5.69,3.62,3.37,3.37,0,0,1,5.69-3.62Z" />
   <path class="cls-2" d="M1307.86,957.58a2.24,2.24,0,0,1,.78-3.11,2.26,2.26,0,0,1,2.33,3.88A2.25,2.25,0,0,1,1307.86,957.58Z" />
   <path class="cls-2" d="M1327.49,979.29c1.39-.23,2.92,0,4.16-.65a20.33,20.33,0,0,0,3.19-2.75,7.66,7.66,0,0,0-.59,8.15l-.3.08c-.44-.7-.91-1.38-1.31-2.1a4,4,0,0,0-3.21-2.15c-.66-.08-1.31-.22-2-.33Z" />
   <path class="cls-2" d="M1288.56,976.29a2,2,0,0,1,2.73.64,2.07,2.07,0,0,1-.66,2.81,2,2,0,0,1-2.74-.67A2,2,0,0,1,1288.56,976.29Z" />
   <path class="cls-2" d="M1303.17,939.44a1.23,1.23,0,0,1-1.65-.32,1.17,1.17,0,0,1,.29-1.59,1.13,1.13,0,0,1,1.64.26A1.17,1.17,0,0,1,1303.17,939.44Z" />
   <path class="cls-2" d="M1338.54,983.15a1.17,1.17,0,1,1-.32,1.64A1.17,1.17,0,0,1,1338.54,983.15Z" />
   <path class="cls-2" d="M1301.78,986.7c-.28.57-.92.84-.93,1.38a7.12,7.12,0,0,0,.41,1.6,1.89,1.89,0,0,0-2.9-.51,2,2,0,0,0,.47-3C1299.69,987.15,1300.61,987.52,1301.78,986.7Z" />
   <path class="cls-2" d="M1329.55,940.8a1.16,1.16,0,0,1-.42,1.61,1.13,1.13,0,0,1-1.56-.37,1.15,1.15,0,0,1,.34-1.62A1.2,1.2,0,0,1,1329.55,940.8Z" />
   <path class="cls-2" d="M1284.23,955.19a15.38,15.38,0,0,0-2.33-.6c-.78,0-1.43.52-2.27.74.57-.63,1.3-1,1.65-1.67a9.6,9.6,0,0,0,.57-2.29A4.56,4.56,0,0,0,1284.23,955.19Z" />
   <path class="cls-2" d="M1300.84,963.49a15.69,15.69,0,0,0-2.33-.6c-.78,0-1.44.53-2.28.74.57-.63,1.3-1,1.65-1.67a10,10,0,0,0,.58-2.29A4.54,4.54,0,0,0,1300.84,963.49Z" />
</svg>