<?xml version="1.0" encoding="UTF-8"?>
<svg xmlns="http://www.w3.org/2000/svg" id="Layer_1" data-name="Layer 1" width="666" height="815" viewBox="667 593 666 815">
   <defs>
      <style>.cls-1{fill:#1f3a77;}.cls-2{fill:#fac831;}</style>
   </defs>
   <title>Untitled-1</title>
   <path class="cls-1" d="M1113.07,954.78c14.52,33.69,34.87,48.45,60.57,55.93,16,4.67,21.18,13,18.6,29.46-5,31.81-8.45,63.85-12.71,97-35.9-8-69.76-20-104.23-22.11-56-3.49-112.43-2.43-168.49.4-32.94,1.66-62.85,4.45-79.91-31.58-14.52-30.64-10.88-75,17.93-97.68,23.27-18.28,53.56-29.8,82.52-38.17,40.88-11.82,83.7-16.77,125.08-27.09,17.31-4.32,33-14.9,48.8-26.75-85.76,16.67-166.5,21.33-228.16-60.88,1,12.58-.27,25.84,3.34,37.61,8.7,28.34-5.69,41-29.36,48.82-65.45,21.5-134-29.55-133.39-99.39.07-8,1-16,1.74-27.72-33,44.87-17,106.12,39.24,164.45-60.72-16-106.83-117.25-65.16-197.69,28.43-54.88,89.41-87.3,151.19-77.86,17.19,2.63,26.09-1.76,36-15.37,65-89.06,182.46-89.38,246-.56,9.89,13.82,18.59,18.53,35.76,16a146.4,146.4,0,0,1,160.87,100.4,149.46,149.46,0,0,1-73.22,178.5C1203.82,982.7,1162.05,979.42,1113.07,954.78Zm-218-189c19-95.07,79.8-123.65,165.08-119-32.62-31.38-104.14-26.72-138.77,3.11C887.44,679.08,876,717.81,895.11,765.73Zm390.71,40c.1,79.84-43.7,118.23-118.41,128.81,35,21.77,79.9,12.74,110.34-20C1307,883.05,1311.24,839,1285.82,805.7Z" />
   <path class="cls-1" d="M1023.46,1364.64c-99.52-11.14-171.17-100.84-160-200.36A180.5,180.5,0,0,1,909.92,1062a181.06,181.06,0,0,0-90.32,137.3c-11.14,99.52,60.52,189.22,160,200.35a181,181,0,0,0,153.86-57.75A180.5,180.5,0,0,1,1023.46,1364.64Z" />
   <path class="cls-2" d="M807.15,955.9l-22.81,6.26c-4,1.1-6.28,3.38-7,7.78-1.26,7.82-3.12,15.53-5.09,25-2-9.13-4-16.51-6.29-23.8-1.53-4.86-4.46-7.18-9.25-8-7.65-1.28-15.27-2.75-24.24-4.39,9.33-2.68,17.72-4.07,25.65-7.1,3.27-1.25,5.23-3,5.88-6.56,1.55-8.43,3.36-16.81,5.23-26.06,2.48,8.69,5,16.45,6.84,24.35,1.1,4.65,3.72,6.49,8.13,7.22,7.64,1.27,15.21,2.92,22.81,4.41C807.06,955.31,807.11,955.6,807.15,955.9Z" />
   <path class="cls-2" d="M1111.16,631.92a111.87,111.87,0,0,0,14.48-4.1,3.33,3.33,0,0,0,2.3-2.54c1.2-4.68,1.9-9.44,2.64-14.2a1,1,0,0,1,.36-.7q.86,3.45,1.72,6.89c.68,2.66,1.52,5.28,2.35,7.89a2.78,2.78,0,0,0,2.33,2c4.69,1.11,9.45,1.89,14.21,2.65l1.13.24-6.48,1.5a71.17,71.17,0,0,0-9,2.73,2.44,2.44,0,0,0-1.64,1.89A129.07,129.07,0,0,0,1133,649.4a11.69,11.69,0,0,1-.43,2c-.91-4.07-1.93-8.08-3.1-12.06-.9-3.08-2.42-4.81-5.72-5.28-3.49-.48-6.94-1.27-10.44-1.77C1112.58,632.17,1111.87,632,1111.16,631.92Z" />
   <path class="cls-2" d="M1115,1173l-12,3.3a4.59,4.59,0,0,0-3.68,4.09c-.66,4.11-1.65,8.17-2.68,13.15-1.08-4.81-2.1-8.69-3.31-12.53a5.56,5.56,0,0,0-4.87-4.2c-4-.67-8-1.45-12.76-2.31,4.91-1.41,9.33-2.14,13.5-3.73a4.26,4.26,0,0,0,3.1-3.46c.81-4.43,1.76-8.85,2.75-13.71,1.31,4.57,2.62,8.65,3.6,12.81.58,2.45,2,3.42,4.28,3.8,4,.67,8,1.54,12,2.32Z" />
   <path class="cls-2" d="M990.37,1189.34l-16.58,4.56a6.35,6.35,0,0,0-5.08,5.65c-.91,5.68-2.27,11.29-3.7,18.16-1.49-6.64-2.9-12-4.57-17.3a7.65,7.65,0,0,0-6.72-5.8c-5.57-.93-11.1-2-17.63-3.19,6.79-2,12.89-3,18.65-5.16,2.38-.91,3.8-2.19,4.28-4.77,1.12-6.13,2.44-12.22,3.8-19,1.8,6.33,3.61,12,5,17.71.8,3.38,2.7,4.72,5.91,5.25,5.55.92,11,2.12,16.58,3.2Z" />
   <path class="cls-2" d="M1076.7,1295.63q-11.4,3.13-22.81,6.27c-4,1.1-6.28,3.38-7,7.78-1.26,7.81-3.12,15.53-5.09,25-2-9.13-4-16.5-6.29-23.79-1.53-4.86-4.46-7.18-9.25-8-7.65-1.27-15.27-2.75-24.24-4.38,9.33-2.68,17.72-4.08,25.65-7.1,3.27-1.26,5.23-3,5.88-6.57,1.55-8.43,3.36-16.81,5.23-26.06,2.48,8.7,5,16.45,6.84,24.36,1.1,4.65,3.72,6.49,8.13,7.22,7.63,1.26,15.21,2.91,22.81,4.4C1076.61,1295,1076.65,1295.34,1076.7,1295.63Z" />
   <path class="cls-2" d="M1114,665.3c14.75-3.53,29.19-6.8,43.09-12.19,3.78-1.46,5.83-3.54,6.85-7.54,3.56-13.93,5.65-28.11,7.84-42.28a3.17,3.17,0,0,1,1.07-2.06c1.71,6.84,3.4,13.68,5.13,20.5,2,7.92,4.51,15.7,7,23.48,1.19,3.74,3.4,5.22,6.92,6,14,3.31,28.13,5.64,42.29,7.91.63.1,1.25.26,3.36.7-7.36,1.7-13.33,3-19.27,4.46a210.19,210.19,0,0,0-26.78,8.12,7.24,7.24,0,0,0-4.88,5.63,385.52,385.52,0,0,0-7.68,39.26,34.09,34.09,0,0,1-1.29,5.88c-2.7-12.1-5.73-24-9.22-35.89-2.69-9.15-7.19-14.32-17-15.69-10.37-1.46-20.65-3.79-31.05-5.27C1118.25,666.07,1116.14,665.66,1114,665.3Z" />
</svg>